<?xml version="1.0" encoding="UTF-8"?>
<svg width="16px" height="16px" viewBox="0 0 16 16" version="1.1" xmlns="http://www.w3.org/2000/svg" xmlns:xlink="http://www.w3.org/1999/xlink">
    <!-- Generator: Sketch 58 (84663) - https://sketch.com -->
    <g id="Page-1" stroke="none" stroke-width="1" fill="none" fill-rule="evenodd">
        <g id="版本发布-添加功能点" transform="translate(-660.000000, -963.000000)">
            <g id="Group-18" transform="translate(354.000000, 931.000000)">
                <g id="Group-12-Copy" transform="translate(40.000000, 20.000000)">
                    <g id="删除" transform="translate(266.000000, 12.000000)">
                        <rect id="Rectangle" x="0" y="0" width="16" height="16"></rect>
                        <path d="M10.056247,1.15 C10.6715001,1.15 11.1809751,1.62102163 11.2422561,2.22064914 L11.248435,2.34218794 L11.248435,2.85624867 L14.4859393,2.85625003 C14.7703058,2.85625003 15,3.07498893 15,3.35937191 C15,3.61215799 14.8185122,3.82171803 14.5784628,3.86516612 L14.4859393,3.87343264 L12.9546768,3.87343264 L12.9546768,12.9296756 C12.9546768,13.9192672 12.1907984,14.7302703 11.2204699,14.8052647 L11.0734419,14.8109241 L4.92655807,14.8109241 C3.93697941,14.8109241 3.12597701,14.0470482 3.05098262,13.0767058 L3.04532321,12.9296756 L3.04532321,3.88437013 L1.51406073,3.88437013 C1.22969416,3.88437013 1,3.65467461 1,3.3703094 C1,3.11753911 1.18148782,2.90796678 1.4215497,2.86451577 L1.5140785,2.85624867 L4.76251347,2.85624867 L4.76251347,2.34218794 C4.76251347,1.72693482 5.23353509,1.21745987 5.83316261,1.15617883 L5.9547014,1.15 L10.056247,1.15 Z M8.00001367,5.74374504 C7.71563069,5.74374504 7.48595294,5.97342143 7.48595294,6.25780578 L7.48595294,11.7265378 C7.48595294,12.0109208 7.71562932,12.2406163 8.00001367,12.2406163 C8.28439665,12.2406163 8.5140744,12.0109222 8.5140744,11.7265378 L8.5140744,6.25780578 C8.5140744,5.97342279 8.28439802,5.74374504 8.00001367,5.74374504 Z M5.60470304,5.74374504 C5.32032006,5.74374504 5.09064231,5.97342143 5.09064231,6.25780578 L5.09064231,11.7265378 C5.10158015,12.0109208 5.33127396,12.2406163 5.60470304,12.2406163 C5.88908602,12.2406163 6.11876377,12.0109222 6.11876377,11.7265378 L6.11876377,6.25780578 C6.11876377,5.97342279 5.88908739,5.74374504 5.60470304,5.74374504 Z M10.3953243,5.74374504 C10.1109591,5.74374504 9.88126357,5.97342143 9.88126357,6.25780578 L9.88126357,11.7265378 C9.88126357,12.0109208 10.11094,12.2406163 10.3953243,12.2406163 C10.6796895,12.2406163 10.909385,12.0109222 10.909385,11.7265378 L10.909385,6.25780578 C10.909385,5.97342279 10.6796909,5.74374504 10.3953243,5.74374504 Z M10.0562539,2.1671826 L5.95470824,2.1671826 C5.87595578,2.1671826 5.81120209,2.21618414 5.78845072,2.28618626 L5.77970017,2.34218794 L5.77970017,2.85624867 L10.2312592,2.85624867 L10.2312592,2.34218794 C10.2312592,2.24374737 10.1546943,2.1671826 10.0562539,2.1671826 Z" id="Combined-Shape" fill="#8A909A" fill-rule="nonzero"></path>
                    </g>
                </g>
            </g>
        </g>
    </g>
</svg>
